<?xml version="1.0" encoding="utf-8"?>
<!-- Generator: Adobe Illustrator 22.1.0, SVG Export Plug-In . SVG Version: 6.00 Build 0)  -->
<svg version="1.1" id="Livello_1" xmlns="http://www.w3.org/2000/svg" xmlns:xlink="http://www.w3.org/1999/xlink" x="0px" y="0px"
	 viewBox="0 0 573.5 210.2" style="enable-background:new 0 0 573.5 210.2;" xml:space="preserve">
<style type="text/css">
	.st0{fill:#D13424;}
	.st1{fill:#FEFEFE;}
</style>
<g>
	<polygon class="st0" points="0,210.2 0,210.2 573.5,210.2 573.5,0 0,0 	"/>
	<path class="st1" d="M414.8,47.8L414.8,47.8h34.9H489h33.9l-36.9,54l40.3,59.9h-36.1h-44.7h-34.1l40.5-59.9L414.8,47.8z
		 M335.9,47.8L335.9,47.8h30.1l42.6,113.9H293.3L335.9,47.8z M162.7,47.8L162.7,47.8h43.8L226,110L246,47.8h43.8v113.9h-127V47.8z
		 M50.2,47.8L50.2,47.8h49c34.9,0,55.9,21.2,55.9,56.5c0,37.2-21.2,57.4-55.9,57.4h-49V47.8z"/>
</g>
</svg>
